<?xml version="1.0" encoding="UTF-8" standalone="no"?>
<svg
   width="200"
   height="510"
   version="1.1"
   overflow="visible"
   viewBox="0 0 2000 5100"
   id="svg12"
   sodipodi:docname="nota-n04.svg"
   inkscape:version="1.4.3 (0d15f75, 2025-12-25)"
   xmlns:inkscape="http://www.inkscape.org/namespaces/inkscape"
   xmlns:sodipodi="http://sodipodi.sourceforge.net/DTD/sodipodi-0.dtd"
   xmlns="http://www.w3.org/2000/svg"
   xmlns:svg="http://www.w3.org/2000/svg">
  <sodipodi:namedview
     id="namedview12"
     pagecolor="#000000"
     bordercolor="#000000"
     borderopacity="0.25"
     inkscape:showpageshadow="2"
     inkscape:pageopacity="0.0"
     inkscape:pagecheckerboard="0"
     inkscape:deskcolor="#d1d1d1"
     inkscape:zoom="2.85"
     inkscape:cx="64.210526"
     inkscape:cy="297.36842"
     inkscape:window-width="1920"
     inkscape:window-height="1013"
     inkscape:window-x="-9"
     inkscape:window-y="-9"
     inkscape:window-maximized="1"
     inkscape:current-layer="svg12" />
  <defs
     id="defs2">
    <symbol
       id="clef"
       viewBox="0 0 1000 1000"
       style="overflow:inherit">
      <path
         transform="scale(1,-1)"
         d="m 562,-21 c 0,89 -65,150 -155,150 7,-44 34,-203 55,-323 71,29 100,102 100,173 z M 420,-206 362,123 C 303,109 258,60 258,-1 c 0,-49 22,-75 61,-99 12,-8 22,-13 22,-22 0,-9 -9,-13 -17,-13 -80,0 -135,96 -135,166 0,94 62,190 153,217 -7,41 -14,88 -23,142 C 304,375 288,361 271,346 183,270 97,161 97,39 c 0,-151 122,-251 265,-251 19,0 38,2 58,6 z M 332,822 c -8,-31 -11,-65 -11,-102 0,-42 5,-81 11,-121 69,68 146,146 146,250 0,69 -24,118 -39,118 -52,0 -98,-105 -107,-145 z M 122,-513 c 0,66 45,123 115,123 75,0 116,-57 116,-111 0,-64 -47,-104 -94,-111 -3,-1 -5,-2 -5,-4 0,-1 2,-2 3,-3 2,0 23,-5 47,-5 101,0 154,55 154,159 0,53 -11,123 -30,219 -23,-4 -50,-7 -79,-7 -186,0 -349,147 -349,334 0,200 126,321 217,406 21,17 73,70 74,71 -17,112 -22,161 -22,215 0,84 18,212 82,288 33,39 64,51 71,51 18,0 47,-35 71,-86 16,-36 44,-110 44,-201 0,-159 -73,-284 -179,-395 9,-56 19,-115 29,-175 146,0 253,-102 253,-253 0,-103 -73,-205 -171,-237 6,-39 12,-69 15,-89 10,-57 16,-102 16,-141 0,-63 -14,-129 -68,-167 -36,-22 -77,-34 -124,-34 -135,0 -186,87 -186,153 z"
         id="path1" />
    </symbol>
    <symbol
       id="offset"
       viewBox="0 0 1000 1000"
       style="overflow:inherit">
      <path
         transform="scale(1,-1)"
         d="m 201,79 c 1,-8 2,-16 2,-25 0,-41 -15,-90 -53,-133 -54,-61 -119,-93 -123,-95 -2,-1 -6,-2 -8,-2 -8,0 -14,6 -14,14 L 0,439 c 0,8 6,14 14,14 h 12 c 8,0 14,-6 14,-14 L 36,118 c 5,6 34,37 84,37 51,0 75,-37 81,-76 z M 132,40 v 11 c 0,21 -3,55 -39,55 C 53,106 38,77 36,68 l -3,-195 c 19,15 53,42 70,68 25,38 29,84 29,99 z"
         id="path2" />
    </symbol>
  </defs>
  <rect
     style="fill:#ffffff;stroke-width:8.01179"
     id="rect1"
     width="2000"
     height="84.210526"
     x="-3.4716035e-07"
     y="3342.4854" />
  <rect
     style="fill:#ffffff;stroke-width:8.01179"
     id="rect1-9"
     width="2000"
     height="84.210526"
     x="-3.4716035e-07"
     y="3762.9678" />
  <rect
     style="fill:#ffffff;stroke-width:8.01179"
     id="rect1-9-8"
     width="2000"
     height="84.210526"
     x="2.488861e-07"
     y="2922.0029" />
  <rect
     style="fill:#ffffff;stroke-width:8.01179"
     id="rect1-9-8-2"
     width="2000"
     height="84.210526"
     x="2.488861e-07"
     y="2501.5205" />
  <rect
     style="fill:#ffffff;stroke-width:8.01179"
     id="rect1-9-8-2-5"
     width="2000"
     height="84.210526"
     x="-1.1368684e-13"
     y="4183.4502" />
  <g
     id="g1"
     transform="translate(0,1252.9824)">
    <ellipse
       style="fill:#ffffff;stroke-width:9.82905"
       id="path3"
       cx="1000"
       cy="1712.6348"
       rx="334.96143"
       ry="200" />
    <text
       xml:space="preserve"
       style="font-weight:bold;font-size:320.153px;font-family:Arial;-inkscape-font-specification:'Arial Bold';writing-mode:lr-tb;direction:ltr;fill:#000000;stroke-width:26.6794"
       x="852.35132"
       y="1830.11"
       id="text1"><tspan
         sodipodi:role="line"
         id="tspan1"
         style="fill:#000000;stroke-width:26.6794"
         x="852.35132"
         y="1830.11">-4</tspan></text>
  </g>
</svg>
